# xmcd CD database file
#
# Track frame offsets:
#	225
#	20003
#	38013
#	55651
#	70700
#	89571
#	107115
#	117409
#	130218
#	151671
#	170875
#	187949
#	203520
#	218867
#
# Disc length: 3113 seconds
#
# Revision: 1
# Processed by: cddbd v1.5.1PL2 Copyright (c) Steve Scherf et al.
# Submitted via: CDex 1.51
#
DISCID=be0c260e
DTITLE=Various Artist - Line Dance CD3
DYEAR=1900
DGENRE=Country
TTITLE0=She Is His Only Need
TTITLE1=No One Else On Earth
TTITLE2=Ain't Going Down
TTITLE3=I'll Think Of Something
TTITLE4=Almost Goodbye
TTITLE5=I Still Believe In You
TTITLE6=She's Got The Rhythm, I've Got The Blues
TTITLE7=Can't Break It To My Heart
TTITLE8=Does He Love You
TTITLE9=I Swear
TTITLE10=Too Busy Beeing In Love
TTITLE11=Amarican Honky-Tonk Bar Association
TTITLE12=Achy Breaky Heart
TTITLE13=Banjo Fever
EXTD=
EXTT0=
EXTT1=
EXTT2=
EXTT3=
EXTT4=
EXTT5=
EXTT6=
EXTT7=
EXTT8=
EXTT9=
EXTT10=
EXTT11=
EXTT12=
EXTT13=
PLAYORDER=
